<svg width="62" height="49" viewBox="0 0 62 49" fill="none" xmlns="http://www.w3.org/2000/svg">
<path d="M31 0.579651C23.0175 0.579651 16.74 7.40874 15.8623 16.1251C14.1741 16.4315 12.5908 17.2461 11.28 18.4829C9.96929 19.7196 8.97987 21.3324 8.4165 23.1506C3.65025 24.6975 0 29.4844 0 35.4887C0 42.7411 5.18475 48.5797 11.625 48.5797H50.375C56.8152 48.5797 62 42.7411 62 35.4887C62 31.6487 60.3434 28.2102 57.9429 25.8058C57.4934 18.1389 52.0626 12.0211 45.229 11.624C42.8962 5.23347 37.5449 0.579651 31 0.579651ZM31 4.94329C36.3514 4.94329 40.6294 8.80511 42.1406 14.2815L42.5669 15.8524H44.5625C49.9003 15.8524 54.25 20.7506 54.25 26.7615V27.8524L55.0366 28.5353C55.986 29.3546 56.7574 30.4065 57.2925 31.6112C57.8276 32.8159 58.1122 34.1418 58.125 35.4887C58.125 40.4546 54.7848 44.216 50.375 44.216H11.625C7.21525 44.216 3.875 40.4546 3.875 35.4887C3.875 31.0815 6.68438 27.6604 10.23 26.9666L11.5029 26.6938L11.7451 25.2582C12.3264 22.3193 14.6397 20.216 17.4375 20.216H19.375V18.0342C19.375 10.6815 24.4706 4.94329 31 4.94329ZM31 17.1484L29.605 18.6473L21.855 27.3746L24.645 30.5164L29.0625 25.5331V39.8524H32.9375V25.5331L37.355 30.512L40.145 27.3702L32.395 18.6429L31 17.1484Z" fill="white"/>
</svg>
