<svg width="46" height="31" viewBox="0 0 46 31" fill="none" xmlns="http://www.w3.org/2000/svg">
<path d="M42.2895 19.2426C42.559 18.2931 42.7117 17.3013 42.7117 16.2756C42.7117 9.85015 37.1953 4.65381 30.3941 4.65381C28.6422 4.65381 26.9801 5.00137 25.4797 5.62018C23.9703 2.31419 20.4844 0 16.4324 0C10.9879 0 6.57656 4.16215 6.57656 9.29915C6.57656 9.6467 6.64844 9.96883 6.68437 10.3079C2.74023 12.0287 0 15.7755 0 20.1496C0 26.1427 5.14805 31 11.5 31H39.4324C43.0621 31 46 28.2281 46 24.8034C46 22.3451 44.4816 20.2513 42.2895 19.2426ZM26.2883 17.047V24.7949H19.7207V17.047H14.7883L23 9.29915L31.2117 17.047H26.2883Z" fill="white"/>
</svg>
